<?xml version="1.0" standalone="no"?>
<!DOCTYPE svg PUBLIC "-//W3C//DTD SVG 20010904//EN"
 "http://www.w3.org/TR/2001/REC-SVG-20010904/DTD/svg10.dtd">
<svg version="1.0" xmlns="http://www.w3.org/2000/svg"
 width="1081.000000pt" height="1081.000000pt" viewBox="0 0 1081.000000 1081.000000"
 preserveAspectRatio="xMidYMid meet">
<metadata>
Created by potrace 1.14, written by Peter Selinger 2001-2017
</metadata>
<g transform="translate(0.000000,1081.000000) scale(0.100000,-0.100000)"
fill="#000000" stroke="none">
<path d="M0 5405 l0 -5405 5405 0 5405 0 0 5405 0 5405 -5405 0 -5405 0 0
-5405z m4350 2689 c0 -4 70 -743 155 -1643 256 -2695 304 -3206 325 -3431 11
-118 23 -236 26 -262 l6 -48 -514 0 -513 0 -34 388 c-18 213 -35 408 -38 435
l-6 47 -321 0 -322 0 -32 -422 c-18 -233 -33 -429 -32 -435 0 -10 -111 -13
-525 -13 l-525 0 0 29 c0 15 61 655 135 1422 74 767 190 1967 257 2667 l123
1272 917 0 c505 0 918 -3 918 -6z m2380 -43 c0 -5 -16 -44 -36 -87 -78 -170
-230 -560 -305 -784 -226 -674 -310 -1171 -311 -1830 0 -472 46 -844 164
-1315 97 -388 286 -903 453 -1235 19 -38 35 -74 35 -80 0 -7 -119 -10 -353
-10 l-353 0 -131 197 c-517 780 -732 1320 -825 2073 -17 139 -17 687 0 835 87
751 345 1391 849 2097 l106 148 353 0 c196 0 354 -4 354 -9z m1303 -139 c504
-707 762 -1343 849 -2097 20 -173 17 -706 -6 -880 -93 -722 -310 -1261 -819
-2027 l-131 -198 -353 0 c-234 0 -353 3 -353 10 0 6 16 42 35 80 237 472 459
1149 545 1664 132 795 90 1582 -125 2350 -94 335 -282 853 -419 1150 -20 43
-36 82 -36 87 0 5 158 9 354 9 l353 0 106 -148z"/>
<path d="M3396 7168 c-2 -7 -47 -602 -100 -1323 -54 -720 -100 -1331 -103
-1357 l-6 -48 242 0 241 0 0 37 c0 36 -213 2544 -225 2651 -5 43 -10 52 -26
52 -11 0 -21 -6 -23 -12z"/>
</g>
</svg>
